<svg width="40" height="38" viewBox="0 0 40 38" fill="none" xmlns="http://www.w3.org/2000/svg">
<g filter="url(#filter0_d_6_66)">
<path d="M6.25 2.25H11.25L14.6 18.9875C14.7143 19.563 15.0274 20.0799 15.4844 20.4479C15.9415 20.8158 16.5134 21.0112 17.1 21H29.25C29.8366 21.0112 30.4085 20.8158 30.8656 20.4479C31.3226 20.0799 31.6357 19.563 31.75 18.9875L33.75 8.5H12.5M17.5 27.25C17.5 27.9404 16.9404 28.5 16.25 28.5C15.5596 28.5 15 27.9404 15 27.25C15 26.5596 15.5596 26 16.25 26C16.9404 26 17.5 26.5596 17.5 27.25ZM31.25 27.25C31.25 27.9404 30.6904 28.5 30 28.5C29.3096 28.5 28.75 27.9404 28.75 27.25C28.75 26.5596 29.3096 26 30 26C30.6904 26 31.25 26.5596 31.25 27.25Z" stroke="#B78732" stroke-width="3" stroke-linecap="round" stroke-linejoin="round"/>
</g>
<defs>
<filter id="filter0_d_6_66" x="0.75" y="0.75" width="38.5" height="38.25" filterUnits="userSpaceOnUse" color-interpolation-filters="sRGB">
<feFlood flood-opacity="0" result="BackgroundImageFix"/>
<feColorMatrix in="SourceAlpha" type="matrix" values="0 0 0 0 0 0 0 0 0 0 0 0 0 0 0 0 0 0 127 0" result="hardAlpha"/>
<feOffset dy="4"/>
<feGaussianBlur stdDeviation="2"/>
<feComposite in2="hardAlpha" operator="out"/>
<feColorMatrix type="matrix" values="0 0 0 0 0 0 0 0 0 0 0 0 0 0 0 0 0 0 0.25 0"/>
<feBlend mode="normal" in2="BackgroundImageFix" result="effect1_dropShadow_6_66"/>
<feBlend mode="normal" in="SourceGraphic" in2="effect1_dropShadow_6_66" result="shape"/>
</filter>
</defs>
</svg>
